<svg width="104" height="92" viewBox="0 0 104 92" fill="none" xmlns="http://www.w3.org/2000/svg">
<path d="M52.2315 0.000638827C52.4093 0.000919161 52.4093 0.000919161 52.5906 0.00120516C54.3231 0.00579319 56.0104 0.0617504 57.7231 0.340262C57.9655 0.375598 58.208 0.410837 58.4504 0.445993C61.2745 0.875131 64.2167 1.57167 66.5405 3.31356C66.6107 3.36379 66.6808 3.41401 66.7531 3.46575C67.7457 4.23226 67.9638 5.22917 68.1228 6.412C68.1702 6.79295 68.2144 7.17422 68.2578 7.55565C68.2748 7.70205 68.2918 7.84845 68.3088 7.99484C68.4244 8.99306 68.5362 9.9917 68.6483 10.9903C68.6762 11.2382 68.704 11.486 68.7319 11.7339C68.7872 12.2259 68.8421 12.718 68.8967 13.21C68.9223 13.4385 68.9479 13.667 68.9735 13.8955C68.9909 14.0541 68.9909 14.0541 69.0087 14.2158C69.0197 14.3134 69.0307 14.4111 69.0421 14.5117C69.0515 14.5968 69.061 14.6819 69.0707 14.7696C69.1019 14.9893 69.148 15.1978 69.2062 15.4118C69.3179 15.441 69.3179 15.441 69.432 15.4709C72.0935 16.1722 74.7278 16.9578 77.2034 18.1801C77.2921 18.2235 77.3808 18.267 77.4723 18.3118C79.2463 19.1882 80.8083 20.1817 82.2272 21.5635C82.2941 21.6228 82.361 21.6822 82.4299 21.7433C83.3279 22.5614 83.9351 23.6921 84.2778 24.8444C84.3116 24.9459 84.3454 25.0474 84.3803 25.152C84.51 27.2058 83.9825 28.8026 82.6236 30.3605C79.619 33.6867 75.0186 35.2056 70.8466 36.43C70.6776 36.481 70.5086 36.5319 70.3396 36.583C69.1697 36.9294 67.9785 37.1634 66.7805 37.3903C66.434 37.456 66.0877 37.5233 65.7415 37.5906C63.7391 37.9759 61.7379 38.2392 59.7096 38.4421C59.5852 38.4547 59.4608 38.4674 59.3326 38.4804C57.0238 38.7022 54.7132 38.7079 52.3959 38.7102C52.0245 38.7107 51.6532 38.7121 51.2818 38.7144C48.0442 38.7344 44.8299 38.5939 41.6198 38.1473C41.5423 38.1368 41.4647 38.1263 41.3847 38.1155C34.5275 37.181 25.2577 35.5455 20.7931 29.6748C19.844 28.2346 19.3099 26.7355 19.6533 25.001C20.4581 22.1876 22.8104 20.3404 25.2609 18.9659C26.8362 18.0934 28.461 17.3847 30.1432 16.7447C30.2181 16.7161 30.293 16.6874 30.3702 16.6579C31.272 16.3198 32.2053 16.0859 33.1357 15.8412C33.2583 15.8089 33.381 15.7766 33.5073 15.7433C33.623 15.7136 33.7386 15.6839 33.8578 15.6533C34.0138 15.6131 34.0138 15.6131 34.173 15.5721C34.4493 15.5144 34.4493 15.5144 34.8594 15.5144C34.8678 15.4059 34.8678 15.4059 34.8764 15.2952C34.9413 14.4826 35.0259 13.6733 35.1181 12.8635C35.1332 12.7302 35.1483 12.5969 35.1638 12.4596C35.1955 12.1784 35.2274 11.8973 35.2594 11.6161C35.2995 11.2642 35.3393 10.9122 35.379 10.5602C35.4486 9.94399 35.5188 9.32782 35.5898 8.71174C35.6486 8.20165 35.7055 7.69142 35.7606 7.18093C35.7862 6.95166 35.8118 6.72239 35.8374 6.49312C35.8481 6.39031 35.8588 6.28751 35.8697 6.18158C36.0117 4.93729 36.4764 4.165 37.4242 3.33839C41.4071 0.245967 47.4016 -0.0153351 52.2315 0.000638827Z" fill="white"/>
<path d="M82.5348 34.1746C82.9698 34.3334 83.1989 34.6581 83.4703 35.014C83.5442 35.1097 83.5442 35.1097 83.6195 35.2073C85.4819 37.6509 88.1149 41.3304 87.8662 44.5299C87.4296 47.1347 85.7473 49.4502 84.1752 51.5017C84.1294 51.5618 84.0836 51.6219 84.0364 51.6838C83.0091 53.0253 81.9058 54.2955 80.7516 55.5289C80.5748 55.7182 80.3987 55.9082 80.2227 56.0983C79.3761 57.0113 78.5319 57.9172 77.5858 58.7291C77.3802 58.9083 77.1871 59.0972 76.9983 59.2938C77.3704 59.4535 77.731 59.558 78.1265 59.6435C78.3106 59.6839 78.3106 59.6839 78.4984 59.7252C78.5638 59.7394 78.6292 59.7536 78.6967 59.7683C79.9821 60.0483 81.2596 60.3544 82.5348 60.678C83.8138 61.0021 85.0951 61.3051 86.3833 61.5907C87.3472 61.8057 88.3057 62.0384 89.2632 62.28C89.3328 62.2975 89.4025 62.3151 89.4743 62.3332C89.6796 62.385 89.8849 62.4368 90.0902 62.4886C91.6418 62.8802 93.2004 63.2378 94.7617 63.5885C95.9018 63.8448 97.0404 64.1064 98.1747 64.3878C98.5219 64.4737 98.8683 64.5506 99.22 64.6161C99.3276 64.6383 99.3276 64.6383 99.4374 64.6611C99.6196 64.6985 99.8026 64.7318 99.9857 64.7647C100.448 65.0361 100.522 65.4657 100.682 65.9581C100.752 66.1485 100.821 66.3388 100.892 66.5289C100.965 66.7337 101.038 66.9386 101.112 67.1436C101.193 67.3706 101.274 67.5975 101.355 67.8245C101.397 67.9398 101.438 68.0551 101.48 68.1739C101.601 68.5115 101.723 68.8489 101.845 69.1862C102.231 70.254 102.613 71.3228 102.985 72.3954C103.228 73.093 103.483 73.7859 103.744 74.4769C103.963 75.0612 103.963 75.0612 103.963 75.2882C100.546 75.2882 97.1286 75.2882 93.6078 75.2882C93.3667 73.9877 93.3667 73.9877 93.1208 72.6609C93.071 72.3924 93.0212 72.1239 92.9699 71.8472C92.8619 71.265 92.7543 70.6827 92.6469 70.1003C92.6043 69.8699 92.5617 69.6394 92.5189 69.409C92.4603 69.0931 92.402 68.7772 92.3438 68.4613C92.3263 68.3675 92.3088 68.2737 92.2908 68.1771C92.2751 68.0913 92.2594 68.0056 92.2432 67.9172C92.2225 67.8057 92.2225 67.8057 92.2015 67.6919C92.1724 67.4961 92.1724 67.4961 92.1724 67.1885C91.9916 67.1536 91.9916 67.1536 91.8071 67.118C91.3223 67.0104 90.8612 66.8551 90.3921 66.6932C89.7451 66.4741 89.0887 66.293 88.4301 66.1119C87.6083 65.8857 86.8 65.6437 85.9939 65.3666C85.5425 65.218 85.0876 65.0873 84.6302 64.9585C83.7114 64.6996 82.7956 64.4314 81.8812 64.1575C81.8139 64.1374 81.7467 64.1172 81.6774 64.0965C80.9747 63.8857 80.2744 63.672 79.5807 63.4334C78.8149 63.1709 78.0357 62.9602 77.2552 62.7463C76.4725 62.5304 75.6987 62.2949 74.931 62.0303C74.4265 61.8622 74.4265 61.8622 73.9225 61.9596C73.7415 62.0791 73.7415 62.0791 73.5696 62.2331C73.5024 62.2901 73.4351 62.3472 73.3658 62.4059C73.2576 62.499 73.2576 62.499 73.1471 62.594C72.2066 63.3846 71.2298 64.1147 70.2315 64.8303C70.108 64.9192 70.108 64.9192 69.982 65.0098C66.8815 67.2322 63.3738 69.6594 59.7736 70.982C59.706 70.9482 59.6383 70.9143 59.5686 70.8795C59.6332 70.8154 59.6977 70.7514 59.7643 70.6854C60.0073 70.4441 60.2502 70.2025 60.4929 69.9608C60.5973 69.8569 60.7018 69.7531 60.8064 69.6494C61.3486 69.1117 61.8827 68.5724 62.3794 67.9915C62.6581 67.6693 62.9537 67.3631 63.2468 67.0539C63.7509 66.5184 64.2282 65.9733 64.6874 65.3986C64.9042 65.1328 65.1302 64.8787 65.3614 64.6253C65.8437 64.0947 66.2962 63.5435 66.7455 62.9848C66.838 62.8711 66.9305 62.7573 67.0231 62.6436C67.8826 61.583 68.7002 60.4924 69.5138 59.3964C69.6079 59.2701 69.6079 59.2701 69.7039 59.1413C70.4736 58.1084 71.2271 57.0673 71.9476 55.9995C72.0714 55.8162 72.1959 55.6334 72.3205 55.4507C74.2279 52.6372 75.9348 49.6929 77.5109 46.6829C77.5635 46.5826 77.6161 46.4822 77.6702 46.3789C79.6949 42.4862 81.2867 38.3785 82.5348 34.1746Z" fill="white"/>
<path d="M21.2232 34.0718C21.4283 34.1743 21.4283 34.1743 21.5406 34.5057C21.5818 34.6521 21.6223 34.7988 21.6622 34.9457C21.7076 35.1062 21.7533 35.2666 21.7991 35.427C21.8226 35.509 21.846 35.5909 21.8701 35.6754C22.0619 36.3305 22.2837 36.9762 22.5048 37.6218C22.5311 37.6984 22.5573 37.7751 22.5844 37.8541C24.1857 42.5055 26.3873 46.9801 28.9128 51.1939C28.9743 51.2968 29.0359 51.3998 29.0993 51.5058C29.7859 52.6519 30.4826 53.7884 31.2373 54.8911C31.3911 55.1157 31.5439 55.3409 31.6967 55.5661C32.3619 56.5448 33.0363 57.5159 33.7316 58.4734C33.7851 58.5473 33.8386 58.6213 33.8937 58.6975C34.6297 59.7138 35.3855 60.707 36.1835 61.6753C36.4858 62.0426 36.7786 62.4166 37.0702 62.7923C37.5937 63.464 38.1443 64.1098 38.7025 64.7527C38.858 64.9327 39.0122 65.1136 39.166 65.2951C39.8169 66.0622 40.4863 66.8081 41.1729 67.5435C41.3972 67.7857 41.6168 68.0322 41.8377 68.2776C42.6581 69.1754 43.5304 70.0238 44.3945 70.8792C44.3268 70.913 44.2591 70.9469 44.1894 70.9817C43.9699 70.9016 43.9699 70.9016 43.6952 70.7695C43.5929 70.7205 43.4906 70.6716 43.3851 70.6211C43.2741 70.5667 43.1632 70.5123 43.0488 70.4563C42.8768 70.3726 42.8768 70.3726 42.7013 70.2872C38.6299 68.289 34.717 65.8184 31.2249 62.9153C31.1139 62.8233 31.1139 62.8233 31.0006 62.7294C30.8597 62.612 30.7196 62.4937 30.5803 62.3744C30.5169 62.3215 30.4535 62.2686 30.3882 62.214C30.3333 62.1672 30.2783 62.1204 30.2217 62.0721C29.9021 61.873 29.6359 61.8343 29.2686 61.9107C29.1777 61.9417 29.0867 61.9726 28.9929 62.0046C28.8386 62.0558 28.8386 62.0558 28.6812 62.1081C28.5716 62.1457 28.4619 62.1833 28.3489 62.222C28.1155 62.2995 27.882 62.3766 27.6484 62.4535C27.5323 62.4919 27.4162 62.5302 27.2965 62.5698C26.8408 62.7171 26.3816 62.8495 25.9203 62.9782C25.0461 63.2235 24.1754 63.4795 23.3058 63.7407C23.2402 63.7604 23.1746 63.7801 23.1071 63.8004C22.0887 64.1065 21.0722 64.4185 20.0563 64.7327C19.153 65.0114 18.2469 65.28 17.3402 65.5471C16.4151 65.8202 15.4931 66.1028 14.5716 66.3878C13.6812 66.6629 12.7883 66.9289 11.8932 67.1882C11.6575 68.1637 11.4636 69.144 11.2865 70.1315C11.2626 70.2632 11.2387 70.3948 11.2141 70.5305C11.1261 71.0162 11.0387 71.502 10.9512 71.9878C10.6562 73.6213 10.6562 73.6213 10.3553 75.2879C6.93805 75.2879 3.5208 75.2879 0 75.2879C0.0807525 74.8034 0.175841 74.4319 0.342827 73.9783C0.367542 73.9105 0.392257 73.8428 0.417722 73.7731C0.471723 73.6252 0.525959 73.4775 0.580401 73.3298C0.730756 72.9218 0.879352 72.5133 1.02808 72.1047C1.06016 72.0167 1.09224 71.9287 1.12529 71.8381C1.38655 71.1199 1.64267 70.3999 1.89716 69.6793C1.936 69.5693 1.97484 69.4594 2.01486 69.3461C2.16958 68.9077 2.32417 68.4692 2.47844 68.0307C2.58675 67.7228 2.69531 67.4151 2.80389 67.1073C2.85156 66.9713 2.85156 66.9713 2.9002 66.8326C2.99133 66.5746 3.08425 66.3173 3.17836 66.0604C3.21256 65.9661 3.24677 65.8718 3.28201 65.7747C3.31685 65.6824 3.35169 65.5902 3.38759 65.4952C3.41871 65.4118 3.44983 65.3285 3.48188 65.2426C3.58847 65.0351 3.58847 65.0351 3.89605 64.8301C4.09287 64.7754 4.29183 64.7282 4.49159 64.6855C4.61497 64.6585 4.73834 64.6316 4.86546 64.6038C4.93175 64.5896 4.99804 64.5753 5.06633 64.5607C5.42622 64.4833 5.78556 64.4035 6.14485 64.3234C6.22056 64.3066 6.29627 64.2897 6.37427 64.2723C7.22669 64.0806 8.07314 63.866 8.91991 63.651C10.19 63.329 11.4624 63.0282 12.7419 62.7451C13.7623 62.5174 14.7759 62.2673 15.7893 62.0106C16.9311 61.7213 18.0738 61.4449 19.2239 61.1903C20.5537 60.8959 21.8743 60.5716 23.1947 60.2382C23.3472 60.1996 23.4997 60.1611 23.6523 60.1226C23.7626 60.0947 23.7626 60.0947 23.8752 60.0663C24.5993 59.8839 25.3253 59.71 26.0525 59.5404C26.3615 59.4681 26.6635 59.394 26.9648 59.2936C26.8787 59.2149 26.7927 59.1363 26.7041 59.0553C25.8852 58.3016 25.0868 57.5293 24.2991 56.7432C24.1632 56.6081 24.1632 56.6081 24.0246 56.4702C23.5702 56.0147 23.1302 55.5531 22.711 55.0649C22.4985 54.818 22.2773 54.5795 22.0563 54.3402C21.552 53.7859 21.0731 53.2169 20.6081 52.6293C20.5596 52.5683 20.5111 52.5073 20.4612 52.4445C18.8489 50.4067 17.2634 48.2324 16.4044 45.7599C16.3718 45.6841 16.3391 45.6082 16.3055 45.53C15.7464 44.1646 16.1476 42.7269 16.6844 41.4321C17.6686 39.1188 18.9302 36.9548 20.5055 34.9945C20.6468 34.8132 20.7878 34.6317 20.9285 34.4498C21.0267 34.3238 21.1249 34.1978 21.2232 34.0718Z" fill="white"/>
<path d="M33.0139 37.5576C33.1398 37.5913 33.1398 37.5913 33.2682 37.6257C35.5819 38.2255 37.9272 38.6625 40.2934 38.993C40.3843 39.0063 40.4751 39.0196 40.5688 39.0333C44.8745 39.6607 49.4849 40.1473 53.8356 39.8345C54.1547 39.8118 54.4738 39.7929 54.793 39.7744C59.8949 39.4649 65.1571 39.048 70.0921 37.6481C70.4365 37.5576 70.4365 37.5576 70.7441 37.5576C69.9105 40.4535 68.5393 44.9127 65.7647 46.5596C63.4452 47.7027 60.8598 47.8395 58.3192 47.8815C58.1147 47.8853 57.9103 47.8907 57.7059 47.8977C56.0723 47.9495 56.0723 47.9495 55.6276 47.6317C55.463 47.3896 55.3639 47.1617 55.2624 46.8876C55.1728 46.7333 55.0801 46.5806 54.9845 46.4299C54.9175 46.3172 54.9175 46.3172 54.8491 46.2023C53.87 44.4971 53.87 44.4971 52.2891 43.4017C51.8557 43.2952 51.534 43.3237 51.1289 43.5122C50.073 44.1626 49.5074 45.1585 48.8897 46.1976C48.8413 46.2743 48.7928 46.351 48.7429 46.4301C48.5882 46.6848 48.5882 46.6848 48.4804 46.9896C48.3173 47.3537 48.192 47.5577 47.8804 47.8104C47.1754 48.0119 46.406 47.9304 45.6825 47.9001C45.4719 47.8951 45.2614 47.8903 45.0508 47.886C39.054 47.7351 39.054 47.7351 37.1126 45.8816C35.8404 44.4736 34.9218 42.6642 34.2507 40.8998C34.1594 40.6767 34.0589 40.4708 33.9479 40.2574C33.7011 39.7704 33.5236 39.2653 33.3471 38.7495C33.3148 38.6571 33.2824 38.5647 33.249 38.4696C33.0139 37.7907 33.0139 37.7907 33.0139 37.5576Z" fill="white"/>
<path d="M65.5949 46.0674C65.3994 45.969 65.204 45.8705 65.0025 45.7691C65.8822 44.7849 66.7619 43.8006 67.6683 42.7865C67.6683 43.7845 67.5321 43.9864 66.9648 44.7625C66.8342 44.9447 66.7037 45.127 66.5691 45.3147C66.1873 45.7691 66.1873 45.7691 65.5949 46.0674Z" fill="#CBCBCB"/>
<path d="M87.8397 83.4167L88.1486 83.1028L87.2219 82.1614L85.5244 80.4368L84.5978 79.4953L84.2889 79.8091L83.6711 80.4368L78.226 85.9689C77.9417 86.2577 77.7339 86.616 77.6191 87.0075L76.6515 90.3513C76.5831 90.5845 76.646 90.8373 76.8182 91.0094C76.9904 91.1816 77.2365 91.2455 77.4661 91.1789L80.7545 90.1957C81.1399 90.0791 81.4925 89.868 81.7768 89.5792L87.2219 84.0471L87.8397 83.4167ZM80.9977 88.0934L80.749 88.7238C80.6397 88.8099 80.5166 88.8738 80.3854 88.9155L78.2478 89.5542L78.8765 87.3852C78.9148 87.2492 78.9804 87.1242 79.0652 87.0159L79.6857 86.7631V87.6518C79.6857 87.8962 79.8825 88.0962 80.123 88.0962H80.9977V88.0934ZM86.5385 77.5207L86.1449 77.9234L85.5271 78.5511L85.2155 78.8649L86.1422 79.8063L87.8397 81.531L88.7663 82.4724L89.0752 82.1586L89.693 81.531L90.0893 81.1283C90.7727 80.434 90.7727 79.3092 90.0893 78.6149L89.0151 77.5207C88.3317 76.8264 87.2246 76.8264 86.5413 77.5207H86.5385ZM85.2429 82.1864L81.3066 86.1855C81.1371 86.3577 80.8583 86.3577 80.6889 86.1855C80.5194 86.0133 80.5194 85.73 80.6889 85.5579L84.6251 81.5587C84.7946 81.3865 85.0734 81.3865 85.2429 81.5587C85.4123 81.7309 85.4123 82.0142 85.2429 82.1864Z" fill="#FFCC00"/>
<path d="M14.6971 91.2415H13.2141L15.4737 84.696H17.2571L19.5135 91.2415H18.0305L16.391 86.1917H16.3398L14.6971 91.2415ZM14.6044 88.6687H18.1072V89.7489H14.6044V88.6687ZM25.7761 84.696V91.2415H24.5808L21.7331 87.1218H21.6852V91.2415H20.3013V84.696H21.5158L24.3411 88.8125H24.3986V84.696H25.7761ZM32.9344 87.9687C32.9344 88.6825 32.7991 89.2898 32.5285 89.7905C32.26 90.2912 31.8936 90.6736 31.4291 90.9378C30.9667 91.1999 30.4468 91.3309 29.8694 91.3309C29.2877 91.3309 28.7657 91.1988 28.3034 90.9346C27.841 90.6704 27.4756 90.288 27.2071 89.7873C26.9387 89.2866 26.8044 88.6804 26.8044 87.9687C26.8044 87.2549 26.9387 86.6477 27.2071 86.147C27.4756 85.6463 27.841 85.2649 28.3034 85.0028C28.7657 84.7386 29.2877 84.6065 29.8694 84.6065C30.4468 84.6065 30.9667 84.7386 31.4291 85.0028C31.8936 85.2649 32.26 85.6463 32.5285 86.147C32.7991 86.6477 32.9344 87.2549 32.9344 87.9687ZM31.5313 87.9687C31.5313 87.5064 31.4621 87.1165 31.3236 86.799C31.1872 86.4815 30.9944 86.2407 30.7451 86.0767C30.4958 85.9126 30.2039 85.8306 29.8694 85.8306C29.5349 85.8306 29.243 85.9126 28.9937 86.0767C28.7444 86.2407 28.5505 86.4815 28.412 86.799C28.2757 87.1165 28.2075 87.5064 28.2075 87.9687C28.2075 88.4311 28.2757 88.821 28.412 89.1385C28.5505 89.4559 28.7444 89.6967 28.9937 89.8608C29.243 90.0248 29.5349 90.1069 29.8694 90.1069C30.2039 90.1069 30.4958 90.0248 30.7451 89.8608C30.9944 89.6967 31.1872 89.4559 31.3236 89.1385C31.4621 88.821 31.5313 88.4311 31.5313 87.9687ZM39.4343 84.696V91.2415H38.239L35.3913 87.1218H35.3434V91.2415H33.9595V84.696H35.174L37.9993 88.8125H38.0568V84.696H39.4343ZM40.1942 84.696H41.7442L43.2368 87.5149H43.3007L44.7932 84.696H46.3433L43.9559 88.9275V91.2415H42.5816V88.9275L40.1942 84.696ZM47.0992 84.696H48.8058L50.6084 89.0937H50.6851L52.4877 84.696H54.1943V91.2415H52.852V86.9812H52.7977L51.1038 91.2095H50.1897L48.4958 86.9652H48.4415V91.2415H47.0992V84.696ZM61.3494 87.9687C61.3494 88.6825 61.2141 89.2898 60.9435 89.7905C60.6751 90.2912 60.3086 90.6736 59.8441 90.9378C59.3817 91.1999 58.8619 91.3309 58.2844 91.3309C57.7028 91.3309 57.1808 91.1988 56.7184 90.9346C56.256 90.6704 55.8906 90.288 55.6222 89.7873C55.3537 89.2866 55.2195 88.6804 55.2195 87.9687C55.2195 87.2549 55.3537 86.6477 55.6222 86.147C55.8906 85.6463 56.256 85.2649 56.7184 85.0028C57.1808 84.7386 57.7028 84.6065 58.2844 84.6065C58.8619 84.6065 59.3817 84.7386 59.8441 85.0028C60.3086 85.2649 60.6751 85.6463 60.9435 86.147C61.2141 86.6477 61.3494 87.2549 61.3494 87.9687ZM59.9464 87.9687C59.9464 87.5064 59.8771 87.1165 59.7386 86.799C59.6023 86.4815 59.4094 86.2407 59.1602 86.0767C58.9109 85.9126 58.619 85.8306 58.2844 85.8306C57.9499 85.8306 57.658 85.9126 57.4087 86.0767C57.1594 86.2407 56.9656 86.4815 56.8271 86.799C56.6907 87.1165 56.6225 87.5064 56.6225 87.9687C56.6225 88.4311 56.6907 88.821 56.8271 89.1385C56.9656 89.4559 57.1594 89.6967 57.4087 89.8608C57.658 90.0248 57.9499 90.1069 58.2844 90.1069C58.619 90.1069 58.9109 90.0248 59.1602 89.8608C59.4094 89.6967 59.6023 89.4559 59.7386 89.1385C59.8771 88.821 59.9464 88.4311 59.9464 87.9687ZM66.4175 84.696H67.8014V88.9467C67.8014 89.424 67.6874 89.8416 67.4594 90.1996C67.2336 90.5575 66.9172 90.8366 66.5102 91.0369C66.1032 91.2351 65.6292 91.3341 65.088 91.3341C64.5447 91.3341 64.0695 91.2351 63.6626 91.0369C63.2556 90.8366 62.9392 90.5575 62.7133 90.1996C62.4875 89.8416 62.3746 89.424 62.3746 88.9467V84.696H63.7584V88.8285C63.7584 89.0777 63.8128 89.2993 63.9214 89.4932C64.0322 89.6871 64.1878 89.8395 64.3881 89.9503C64.5883 90.0611 64.8216 90.1165 65.088 90.1165C65.3564 90.1165 65.5898 90.0611 65.7879 89.9503C65.9882 89.8395 66.1427 89.6871 66.2513 89.4932C66.3621 89.2993 66.4175 89.0777 66.4175 88.8285V84.696ZM72.4908 86.5785C72.4652 86.3206 72.3555 86.1204 72.1616 85.9776C71.9677 85.8348 71.7045 85.7635 71.3722 85.7635C71.1463 85.7635 70.9556 85.7954 70.8001 85.8594C70.6445 85.9211 70.5252 86.0074 70.4421 86.1182C70.3612 86.229 70.3207 86.3547 70.3207 86.4954C70.3164 86.6125 70.3409 86.7148 70.3942 86.8022C70.4496 86.8895 70.5252 86.9652 70.6211 87.0291C70.717 87.0909 70.8278 87.1452 70.9535 87.1921C71.0792 87.2368 71.2134 87.2752 71.3562 87.3072L71.9442 87.4478C72.2298 87.5117 72.4918 87.5969 72.7305 87.7035C72.9691 87.81 73.1758 87.941 73.3505 88.0966C73.5252 88.2521 73.6605 88.4353 73.7564 88.6463C73.8544 88.8572 73.9045 89.0991 73.9066 89.3718C73.9045 89.7723 73.8022 90.1197 73.5998 90.4137C73.3995 90.7056 73.1097 90.9325 72.7305 91.0944C72.3533 91.2542 71.8984 91.3341 71.3658 91.3341C70.8374 91.3341 70.3771 91.2532 69.9851 91.0912C69.5952 90.9293 69.2905 90.6896 69.071 90.3721C68.8537 90.0525 68.7397 89.6573 68.729 89.1864H70.0682C70.0831 89.4059 70.146 89.5891 70.2567 89.7361C70.3697 89.881 70.5199 89.9907 70.7074 90.0653C70.897 90.1378 71.1112 90.174 71.3498 90.174C71.5842 90.174 71.7876 90.1399 71.9602 90.0717C72.1349 90.0035 72.2702 89.9087 72.3661 89.7873C72.462 89.6658 72.5099 89.5263 72.5099 89.3686C72.5099 89.2216 72.4663 89.098 72.3789 88.9978C72.2937 88.8977 72.168 88.8125 72.0018 88.7422C71.8377 88.6719 71.6364 88.6079 71.3977 88.5504L70.685 88.3714C70.1332 88.2372 69.6974 88.0273 69.3778 87.7418C69.0582 87.4563 68.8995 87.0717 68.9016 86.588C68.8995 86.1917 69.005 85.8455 69.218 85.5493C69.4332 85.2532 69.7283 85.022 70.1033 84.8558C70.4783 84.6896 70.9045 84.6065 71.3817 84.6065C71.8675 84.6065 72.2915 84.6896 72.6538 84.8558C73.0181 85.022 73.3015 85.2532 73.5039 85.5493C73.7063 85.8455 73.8107 86.1885 73.8171 86.5785H72.4908Z" fill="#FCFCFC"/>
</svg>
