<svg width="74" height="10" viewBox="0 0 74 10" fill="none" xmlns="http://www.w3.org/2000/svg">
<path d="M1.69513 9H0.213886L2.47086 2.46211H4.25218L6.50597 9H5.02473L3.38706 3.95612H3.33598L1.69513 9ZM1.60255 6.43018H5.10134V7.50918H1.60255V6.43018ZM12.7613 2.46211V9H11.5674L8.72304 4.88509H8.67515V9H7.29287V2.46211H8.50596L11.328 6.57383H11.3854V2.46211H12.7613ZM19.9114 5.73106C19.9114 6.44401 19.7762 7.05055 19.5059 7.55068C19.2378 8.05081 18.8717 8.43283 18.4078 8.69673C17.9459 8.9585 17.4267 9.08939 16.8499 9.08939C16.2689 9.08939 15.7475 8.95744 15.2857 8.69354C14.8238 8.42964 14.4589 8.04762 14.1907 7.54749C13.9225 7.04736 13.7885 6.44188 13.7885 5.73106C13.7885 5.0181 13.9225 4.41156 14.1907 3.91143C14.4589 3.4113 14.8238 3.03035 15.2857 2.76857C15.7475 2.50468 16.2689 2.37273 16.8499 2.37273C17.4267 2.37273 17.9459 2.50468 18.4078 2.76857C18.8717 3.03035 19.2378 3.4113 19.5059 3.91143C19.7762 4.41156 19.9114 5.0181 19.9114 5.73106ZM18.5099 5.73106C18.5099 5.26923 18.4408 4.87977 18.3024 4.56266C18.1662 4.24556 17.9736 4.00507 17.7246 3.8412C17.4756 3.67732 17.184 3.59539 16.8499 3.59539C16.5158 3.59539 16.2242 3.67732 15.9752 3.8412C15.7262 4.00507 15.5325 4.24556 15.3942 4.56266C15.258 4.87977 15.1899 5.26923 15.1899 5.73106C15.1899 6.19288 15.258 6.58234 15.3942 6.89945C15.5325 7.21655 15.7262 7.45704 15.9752 7.62091C16.2242 7.78479 16.5158 7.86672 16.8499 7.86672C17.184 7.86672 17.4756 7.78479 17.7246 7.62091C17.9736 7.45704 18.1662 7.21655 18.3024 6.89945C18.4408 6.58234 18.5099 6.19288 18.5099 5.73106ZM26.4038 2.46211V9H25.2098L22.3655 4.88509H22.3176V9H20.9353V2.46211H22.1484L24.9704 6.57383H25.0279V2.46211H26.4038ZM27.1627 2.46211H28.711L30.2018 5.27774H30.2657L31.7565 2.46211H33.3048L30.9201 6.68875V9H29.5474V6.68875L27.1627 2.46211ZM34.0598 2.46211H35.7645L37.5649 6.85476H37.6415L39.442 2.46211H41.1467V9H39.8059V4.74463H39.7517L38.0597 8.96808H37.1467L35.4548 4.72866H35.4005V9H34.0598V2.46211ZM48.2935 5.73106C48.2935 6.44401 48.1584 7.05055 47.8881 7.55068C47.62 8.05081 47.2539 8.43283 46.79 8.69673C46.3281 8.9585 45.8089 9.08939 45.2321 9.08939C44.6511 9.08939 44.1297 8.95744 43.6679 8.69354C43.206 8.42964 42.841 8.04762 42.5729 7.54749C42.3047 7.04736 42.1707 6.44188 42.1707 5.73106C42.1707 5.0181 42.3047 4.41156 42.5729 3.91143C42.841 3.4113 43.206 3.03035 43.6679 2.76857C44.1297 2.50468 44.6511 2.37273 45.2321 2.37273C45.8089 2.37273 46.3281 2.50468 46.79 2.76857C47.2539 3.03035 47.62 3.4113 47.8881 3.91143C48.1584 4.41156 48.2935 5.0181 48.2935 5.73106ZM46.8921 5.73106C46.8921 5.26923 46.8229 4.87977 46.6846 4.56266C46.5484 4.24556 46.3558 4.00507 46.1068 3.8412C45.8578 3.67732 45.5662 3.59539 45.2321 3.59539C44.898 3.59539 44.6064 3.67732 44.3574 3.8412C44.1084 4.00507 43.9147 4.24556 43.7764 4.56266C43.6402 4.87977 43.5721 5.26923 43.5721 5.73106C43.5721 6.19288 43.6402 6.58234 43.7764 6.89945C43.9147 7.21655 44.1084 7.45704 44.3574 7.62091C44.6064 7.78479 44.898 7.86672 45.2321 7.86672C45.5662 7.86672 45.8578 7.78479 46.1068 7.62091C46.3558 7.45704 46.5484 7.21655 46.6846 6.89945C46.8229 6.58234 46.8921 6.19288 46.8921 5.73106ZM53.3558 2.46211H54.7381V6.70791C54.7381 7.18463 54.6242 7.60176 54.3965 7.9593C54.1709 8.31684 53.8549 8.59564 53.4484 8.79569C53.0419 8.99362 52.5683 9.09258 52.0278 9.09258C51.4851 9.09258 51.0105 8.99362 50.604 8.79569C50.1975 8.59564 49.8815 8.31684 49.6559 7.9593C49.4303 7.60176 49.3175 7.18463 49.3175 6.70791V2.46211H50.6998V6.58979C50.6998 6.83879 50.754 7.06013 50.8626 7.2538C50.9732 7.44746 51.1286 7.59963 51.3287 7.7103C51.5287 7.82097 51.7617 7.8763 52.0278 7.8763C52.2959 7.8763 52.529 7.82097 52.7269 7.7103C52.9269 7.59963 53.0812 7.44746 53.1898 7.2538C53.3004 7.06013 53.3558 6.83879 53.3558 6.58979V2.46211ZM59.422 4.34239C59.3965 4.08488 59.2869 3.88483 59.0932 3.74223C58.8995 3.59964 58.6367 3.52835 58.3047 3.52835C58.0791 3.52835 57.8886 3.56027 57.7333 3.62412C57.5779 3.68584 57.4587 3.77203 57.3757 3.8827C57.2949 3.99336 57.2544 4.11893 57.2544 4.25939C57.2502 4.37644 57.2746 4.4786 57.3278 4.56586C57.3832 4.65311 57.4587 4.72866 57.5545 4.79251C57.6503 4.85423 57.7609 4.9085 57.8865 4.95532C58.0121 5.00001 58.1461 5.03832 58.2887 5.07024L58.8761 5.21071C59.1613 5.27455 59.4231 5.35968 59.6614 5.46609C59.8998 5.5725 60.1062 5.70339 60.2807 5.85875C60.4553 6.01411 60.5904 6.19714 60.6862 6.40783C60.7841 6.61852 60.8341 6.86008 60.8362 7.13249C60.8341 7.53259 60.7319 7.87949 60.5297 8.17319C60.3297 8.46475 60.0403 8.69141 59.6614 8.85315C59.2847 9.01277 58.8304 9.09258 58.2983 9.09258C57.7705 9.09258 57.3108 9.01171 56.9192 8.84996C56.5298 8.68822 56.2254 8.44879 56.0062 8.13169C55.7891 7.81245 55.6753 7.41767 55.6646 6.94733H57.0022C57.0171 7.16654 57.0799 7.34957 57.1906 7.49641C57.3034 7.64113 57.4534 7.75074 57.6407 7.82522C57.8301 7.89758 58.044 7.93376 58.2823 7.93376C58.5164 7.93376 58.7197 7.89971 58.8921 7.83161C59.0666 7.7635 59.2017 7.6688 59.2975 7.54749C59.3933 7.42618 59.4412 7.28678 59.4412 7.1293C59.4412 6.98245 59.3975 6.85901 59.3103 6.75899C59.2251 6.65896 59.0996 6.57383 58.9336 6.5036C58.7697 6.43337 58.5686 6.36952 58.3302 6.31206L57.6183 6.13329C57.0671 5.99921 56.6319 5.78958 56.3127 5.5044C55.9934 5.21922 55.8349 4.83508 55.837 4.35197C55.8349 3.95612 55.9402 3.61029 56.1531 3.31446C56.368 3.01864 56.6628 2.78773 57.0373 2.62173C57.4119 2.45573 57.8375 2.37273 58.3143 2.37273C58.7995 2.37273 59.223 2.45573 59.5848 2.62173C59.9487 2.78773 60.2318 3.01864 60.434 3.31446C60.6362 3.61029 60.7404 3.95293 60.7468 4.34239H59.422Z" fill="#1B3672"/>
<path d="M72.2214 4.06553L72.4203 3.8667L71.8237 3.2702L70.7307 2.17749L70.134 1.58099L69.9351 1.77982L69.5373 2.17749L66.0312 5.68259C65.8482 5.86559 65.7144 6.09258 65.6405 6.34068L65.0174 8.45923C64.9734 8.60703 65.0139 8.76716 65.1248 8.87625C65.2357 8.98534 65.3941 9.02581 65.5419 8.98358L67.6593 8.36069C67.9075 8.28679 68.1345 8.15306 68.3176 7.97006L71.8237 4.46496L72.2214 4.06553ZM67.816 7.02868L67.6558 7.42811C67.5854 7.48265 67.5062 7.52313 67.4217 7.54952L66.0453 7.95422L66.4501 6.57999C66.4748 6.49377 66.517 6.41458 66.5716 6.34596L66.9711 6.18584V6.74891C66.9711 6.90375 67.0979 7.03044 67.2527 7.03044H67.816V7.02868ZM71.3836 0.329923L71.1302 0.585064L70.7324 0.982731L70.5318 1.18156L71.1284 1.77807L72.2214 2.87077L72.8181 3.46727L73.017 3.26844L73.4148 2.87077L73.67 2.61563C74.11 2.17573 74.11 1.4631 73.67 1.0232L72.9783 0.329923C72.5383 -0.109974 71.8254 -0.109974 71.3854 0.329923H71.3836ZM70.5494 3.28603L68.0149 5.81984C67.9057 5.92894 67.7262 5.92894 67.6171 5.81984C67.508 5.71075 67.508 5.53127 67.6171 5.42218L70.1516 2.88837C70.2607 2.77927 70.4402 2.77927 70.5494 2.88837C70.6585 2.99746 70.6585 3.17694 70.5494 3.28603Z" fill="#FFCC00"/>
</svg>
