<svg width="19" height="22" viewBox="0 0 19 22" fill="none" xmlns="http://www.w3.org/2000/svg">
<path d="M17.9307 16.4262C17.8475 16.3245 17.7645 16.2243 17.6818 16.1246C17.114 15.4398 16.5672 14.7803 16.1731 13.8254C15.7204 12.7286 15.4786 11.2813 15.4786 8.95601C15.4786 6.96532 14.9726 5.677 14.31 4.8103C13.6425 3.93723 12.7723 3.43453 11.944 3.09345L17.9307 16.4262ZM17.9307 16.4262C18.1397 16.6823 18.0083 17.1692 17.4864 17.1692H1.15136C0.618252 17.1692 0.493373 16.6812 0.701583 16.4264L0.701617 16.4264C0.784837 16.3246 0.868018 16.2242 0.950754 16.1244C1.51849 15.4397 2.06526 14.7802 2.45959 13.8256C2.91259 12.7288 3.15516 11.2817 3.1565 8.95636V8.95601C3.1565 6.96294 3.66204 5.67501 4.32421 4.80918C4.99136 3.93684 5.8615 3.43508 6.69156 3.09326C7.0652 2.9396 7.43416 2.59642 7.56501 2.15055L7.56545 2.14905C7.82525 1.25521 8.51889 0.6 9.31622 0.6C10.1136 0.6 10.8072 1.25477 11.0701 2.14967L11.0706 2.1512M17.9307 16.4262L11.0706 2.1512M11.0706 2.1512C11.2008 2.59018 11.5667 2.93844 11.9439 3.09343L11.0706 2.1512Z" stroke="#1B3672" stroke-width="1.2" stroke-linecap="round" stroke-linejoin="round"/>
<mask id="path-2-inside-1_151_1422" fill="white">
<path d="M12.7006 17.7695V18.6157C12.7006 19.5133 12.344 20.3742 11.7093 21.009C11.0746 21.6437 10.2137 22.0003 9.31601 22.0003C8.41836 22.0003 7.55747 21.6437 6.92273 21.009C6.28799 20.3742 5.9314 19.5133 5.9314 18.6157V17.7695"/>
</mask>
<path d="M13.9006 17.7695C13.9006 17.1068 13.3634 16.5695 12.7006 16.5695C12.0379 16.5695 11.5006 17.1068 11.5006 17.7695H13.9006ZM5.9314 18.6157L4.7314 18.6157L5.9314 18.6157ZM7.1314 17.7695C7.1314 17.1068 6.59414 16.5695 5.9314 16.5695C5.26865 16.5695 4.7314 17.1068 4.7314 17.7695H7.1314ZM11.5006 17.7695V18.6157H13.9006V17.7695H11.5006ZM11.5006 18.6157C11.5006 19.1951 11.2705 19.7507 10.8608 20.1604L12.5578 21.8575C13.4176 20.9977 13.9006 19.8316 13.9006 18.6157H11.5006ZM10.8608 20.1604C10.4511 20.5701 9.89541 20.8003 9.31601 20.8003V23.2003C10.5319 23.2003 11.698 22.7173 12.5578 21.8575L10.8608 20.1604ZM9.31601 20.8003C8.73662 20.8003 8.18095 20.5701 7.77126 20.1604L6.0742 21.8575C6.93398 22.7173 8.1001 23.2003 9.31601 23.2003V20.8003ZM7.77126 20.1604C7.36156 19.7507 7.1314 19.1951 7.1314 18.6157L4.7314 18.6157C4.7314 19.8316 5.21442 20.9977 6.0742 21.8575L7.77126 20.1604ZM7.1314 18.6157V17.7695H4.7314V18.6157H7.1314Z" fill="#1B3672" mask="url(#path-2-inside-1_151_1422)"/>
</svg>
